<?xml version="1.0" encoding="UTF-8" standalone="no"?>
<!-- Created with Inkscape (http://www.inkscape.org/) -->

<svg
   xmlns:dc="http://purl.org/dc/elements/1.1/"
   xmlns:cc="http://creativecommons.org/ns#"
   xmlns:rdf="http://www.w3.org/1999/02/22-rdf-syntax-ns#"
   xmlns:svg="http://www.w3.org/2000/svg"
   xmlns="http://www.w3.org/2000/svg"
   xmlns:sodipodi="http://sodipodi.sourceforge.net/DTD/sodipodi-0.dtd"
   xmlns:inkscape="http://www.inkscape.org/namespaces/inkscape"
   width="210mm"
   height="297mm"
   viewBox="0 0 744.09448819 1052.3622047"
   id="svg7705"
   version="1.1"
   inkscape:version="0.91 r13725"
   sodipodi:docname="pawpaw.svg">
  <defs
     id="defs7707" />
  <sodipodi:namedview
     id="base"
     pagecolor="#ffffff"
     bordercolor="#666666"
     borderopacity="1.0"
     inkscape:pageopacity="0.0"
     inkscape:pageshadow="2"
     inkscape:zoom="0.24748737"
     inkscape:cx="341.20554"
     inkscape:cy="1276.8664"
     inkscape:document-units="px"
     inkscape:current-layer="layer1"
     showgrid="false"
     inkscape:window-width="1280"
     inkscape:window-height="752"
     inkscape:window-x="0"
     inkscape:window-y="0"
     inkscape:window-maximized="1" />
  <metadata
     id="metadata7710">
    <rdf:RDF>
      <cc:Work
         rdf:about="">
        <dc:format>image/svg+xml</dc:format>
        <dc:type
           rdf:resource="http://purl.org/dc/dcmitype/StillImage" />
        <dc:title></dc:title>
      </cc:Work>
    </rdf:RDF>
  </metadata>
  <g
     inkscape:label="Layer 1"
     inkscape:groupmode="layer"
     id="layer1"
     style="display:inline">
    <path
       style="fill:#a5a5a5;fill-opacity:1;stroke:none;stroke-opacity:1"
       d="m 363.07128,71.419142 c -13.98278,5.4937 -28.68337,10.9191 -42.18359,18.1016 0.20548,0.5191 0.36667,1.0548 0.55078,1.582 0.0929,1.2083 -0.20887,2.2926 -0.13477,3.4863 0.0122,0.3406 0.0665,1.6685 0.0332,1.8008 -1.04398,4.159898 -3.49823,6.645898 -6.5,9.496098 -2.3988,1.3947 -4.11213,3.2187 -6.58985,4.5567 -1.13503,1.3491 -2.37275,2.8992 -3.90039,3.832 -0.65322,0.3988 -1.38546,0.6516 -2.08203,0.9707 -0.34283,0.4532 -0.74822,0.8637 -1.06836,1.334 -0.0539,0.079 0.24016,-0.236 0.25,-0.1406 0.0275,0.2663 -0.12229,0.5206 -0.18359,0.7812 -0.27338,1.2102 -0.76218,2.3328 -1.5918,3.2363 0.0199,0.2366 0.0101,0.5684 0.0195,0.9649 -0.10359,0.9591 -0.22061,1.9165 -0.31054,2.8769 -0.0956,1.021 -0.125,2.0482 -0.2461,3.0664 -0.2106,1.7709 -0.66416,3.5088 -0.8418,5.2832 -0.065,0.6493 -0.042,1.305 -0.0625,1.9571 l -0.30859,2.9941 c -1.00347,4.6324 -0.20737,1.4997 -1.58203,5.791 -0.1666,0.5201 -0.26667,1.063 -0.45898,1.5742 -0.71988,1.9134 -0.89908,0.9639 -0.50196,1.9825 -2.38575,7.5163 -3.94105,10.7994 -1.81445,18.3284 -0.0436,0.1098 -0.11247,0.2076 -0.16992,0.3105 0.1396,0.8646 0.11465,1.5561 0.11718,2.5137 -0.0303,1.4207 -0.0561,2.8411 -0.043,4.2617 0.10064,0.7756 -0.0988,1.5704 0.002,2.3457 0.0429,0.3307 0.20505,0.6359 0.2793,0.961 0.23811,1.0423 0.3164,2.1667 0.79882,3.1484 0.20067,0.4084 0.50552,0.758 0.75782,1.1367 0.6406,0.9068 3.95677,5.4621 3.04687,7.1133 0.68843,3.8437 -0.23254,7.817 0.49805,11.6543 0.16573,0.8705 1.86329,5.7011 2.05664,6.2637 0.74535,2.0507 1.8531,5.3313 2.88672,7.3183 0.4681,0.8999 1.09308,1.71 1.64258,2.5625 0.71644,1.1116 1.35831,2.2755 2.15625,3.3301 0.9643,1.2745 2.08796,2.4216 3.11914,3.6426 1.25379,1.4846 2.49083,2.983 3.73632,4.4746 3.35494,3.4132 6.1169,7.3976 9.8086,10.4805 0.42287,0.3531 0.88283,0.6586 1.34179,0.9648 1.03273,-0.446 2.20105,0.5819 3.30079,0.8633 0.50736,0.6478 1.09351,1.2406 1.52148,1.9434 0.55266,0.9075 1.17326,4.3385 0.95703,4.6777 -2.12275,3.3299 -3.33725,3.406 -4.79883,2.5234 -0.55511,0.5374 -1.11066,1.0236 -1.26562,1.0782 -0.94923,0.3342 -2.09883,-0.1062 -2.99805,0.3457 -0.73534,0.3694 1.64427,-0.051 2.4668,-0.078 -1.4349,0.6994 -2.54849,1.6523 -3.50391,2.877 -0.16662,0.2244 -0.33295,0.4131 -0.5,0.5859 0.25005,0.063 0.50053,0.1275 0.97657,0.2891 3.30065,1.1206 0.74176,0.5248 2.14843,0.8359 2.26572,0.926 4.91254,1.5019 6.61328,3.4004 0.34777,0.3882 0.56905,0.8739 0.85352,1.3106 0.0294,0.6268 0.0792,1.254 0.11133,1.8808 0.0753,0.017 1.00315,0.7537 1.31054,0.9942 0.81713,0.4811 1.36537,1.2824 2.0625,1.8964 0.30501,0.2686 0.6838,0.4454 0.98633,0.7168 1.35261,1.2134 1.72736,1.7306 2.83203,3.0313 1.27977,1.7735 2.98115,3.1221 4.65625,4.4961 4.00519,3.285 0.65984,0.6144 4.90625,3.9629 -2.66033,-0.2551 4.10237,2.1445 2.87891,2.416 -0.55417,0.1229 -0.92386,-0.8623 -1.49023,-0.8242 -1.16412,0.078 -4.44,0.8713 -3.30664,1.1484 18.84617,4.6082 -1.81422,-3.8933 8.69531,0.6934 0.731,0.3712 1.46537,0.7382 2.19336,1.1152 1.67368,-1.0163 3.38773,1.1561 2.89453,1.4043 1.03219,0.7589 1.96533,2.0642 2.06836,3.1309 0.16051,-0.2215 0.32489,-0.4316 0.50195,-0.6172 8.6032,5.947 16.89271,12.3974 25.97656,17.6211 3.45811,1.9885 5.16548,2.6079 8.7461,4.1484 4.41961,2.2417 8.62893,4.859 12.95703,7.2656 0.52916,0.2943 1.05753,0.592 1.59765,0.8653 0.0373,-0.028 0.0719,-0.059 0.10938,-0.086 0.12005,-0.087 0.45934,0.3687 0.32422,0.3067 -0.14753,-0.068 -0.28889,-0.1475 -0.4336,-0.2207 -0.29362,0.218 -0.58058,0.4435 -0.86132,0.6777 1.16259,0.4009 2.37187,1.2569 3.54492,1.7617 0.10562,-0.1573 0.19113,-0.308 0.32422,-0.4746 0.34783,-0.4353 0.59924,0.9442 0.96875,1.3613 0.28704,0.324 0.65457,0.5677 0.98632,0.8457 1.81459,1.5209 0.94654,0.9787 2.86329,1.8594 1.89073,0.026 3.19426,1.4232 4.22851,2.8379 0.26925,0.3683 0.35295,0.8511 0.62305,1.2188 0.054,0.074 -0.009,-0.2896 0.0781,-0.2637 0.27849,0.082 0.47637,0.3322 0.71485,0.498 0.4611,-0.6483 0.13824,-0.2746 1.82617,0.8594 0.13544,0.091 2.15534,1.6249 2.34766,2.1152 0.0572,0.146 0.10543,0.3088 0.15625,0.4668 0.0413,0.017 0.0991,0.04 0.13086,0.051 2.22181,0.7712 2.81647,1.1274 4.53906,2.6426 0.18079,0.599 0.20315,0.6907 0.33789,1.1445 2.02606,0.5066 4.36775,1.4745 5.2539,3.4688 0.26606,0.5987 0.3748,1.2561 0.42188,1.9199 0.39482,0.3081 0.76849,0.6344 1.07812,1.0234 0.12064,0.1516 0.1104,0.3409 0.0703,0.5391 0.23374,0.4262 0.58396,1.0526 1.05078,1.793 0.0278,0.044 0.14305,0.045 0.18945,0.016 -0.0528,-0.077 -0.10776,-0.1517 -0.16016,-0.2285 -0.0488,-0.072 0.14954,0.1074 0.17774,0.1894 0.006,0.016 -0.002,0.029 -0.0176,0.039 0.41506,0.6025 0.83936,1.1994 1.26172,1.7969 -0.11384,-0.2226 -0.25318,-0.4361 -0.10742,-0.3731 0.53871,0.2329 0.90021,0.7561 1.3164,1.1699 0.27309,0.2715 0.67518,0.5024 0.7461,0.8809 0.25553,1.3637 0.13164,2.7723 0.19726,4.1582 0.0468,-1.1624 0.0938,-2.3259 0.14063,-3.4883 -0.006,-0.054 -0.0703,-0.1723 -0.0176,-0.1601 0.21001,0.049 0.38677,0.1917 0.57813,0.291 0.44431,0.2305 0.89178,0.4553 1.33007,0.6972 2.73949,1.5114 1.84082,0.9946 4.54883,2.9454 0.67509,0.6284 1.34282,1.2645 2.02539,1.8847 1.44453,1.3126 1.01837,0.9337 2.58008,2 0.42854,0.2925 1.92268,1.2781 2.31445,1.7051 0.52448,0.5716 0.96532,1.2148 1.4336,1.834 1.70579,-2.7791 3.5349,-5.4995 5.5625,-8.125 18.67706,-26.6972 23.74332,-60.1714 19.33398,-91.9805 -5.16707,-34.2417 -14.19979,-68.1764 -26.9668,-100.332 -14.06114,-25.6139 -30.80987,-50.7359 -51.51171,-71.107398 -12.94444,-10.172 -29.24399,-9.7159 -44.51563,-12.4942 z"
       id="path6464"
       inkscape:connector-curvature="0"
       sodipodi:nodetypes="ccccccccccccccscsccccccccccccccscccsscccccsccccccccsccccscccccccccccccccccccccsccscccccccccccccccccccccscccccccccccccccc" />
    <path
       inkscape:connector-curvature="0"
       style="fill:#ef0024;fill-opacity:1;stroke:none;stroke-opacity:1"
       d="m 360.10058,281.34104 c -0.49431,-0.3634 -1.00541,-0.6102 -1.46485,-0.6211 0.28337,0.1652 0.56657,0.331 0.85743,0.4824 0.31216,0.1625 0.50522,0.1901 0.60742,0.1387 z"
       id="path6462" />
    <path
       inkscape:connector-curvature="0"
       style="fill:#ef0024;fill-opacity:1;stroke:none;stroke-opacity:1"
       d="m 358.63573,280.71994 c -0.33276,-0.194 -0.66579,-0.3877 -1.00585,-0.5684 -0.13982,-0.074 -0.28325,-0.142 -0.42383,-0.2148 -0.81482,0.4948 -1.61895,1.7258 -2.15235,4.3438 -0.29303,1.4382 1.17818,3.2416 2.68946,3.7226 -0.3706,-2.4808 -1.60717,-5.3175 0.0469,-6.9648 0.23616,-0.2353 0.52781,-0.3259 0.8457,-0.3184 z"
       id="path6460" />
    <path
       style="fill:#d4d4d4;fill-opacity:1;stroke:none;stroke-opacity:1"
       d="m 379.06933,89.524642 c 11.63831,3.273087 0.0469,18.387848 -8.3169,16.821688 -5.71609,3.21776 -20.21333,9.29506 -18.98141,-2.40795 -0.26368,-11.368937 12.80241,-13.264995 21.49879,-13.334676 1.94946,-0.261687 3.89204,-0.594588 5.79952,-1.079062 z"
       id="path6458"
       inkscape:connector-curvature="0" />
    <path
       inkscape:connector-curvature="0"
       style="fill:#ef0024;fill-opacity:1;stroke:none;stroke-opacity:1"
       d="m 321.03417,243.29414 c 0.007,0.01 0.0128,0.011 0.0195,0.016 0.10705,-0.1433 0.21513,-0.2799 0.32422,-0.4042 -0.12827,0.1196 -0.2427,0.249 -0.34375,0.3886 z"
       id="path6454" />
    <path
       inkscape:connector-curvature="0"
       style="fill:#ef0024;fill-opacity:1;stroke:none;stroke-opacity:1"
       d="m 321.0537,243.30974 c -0.003,0 -0.005,0.01 -0.008,0.01 0.006,0 0.0117,0 0.0176,0 -0.003,0 -0.007,0 -0.01,-0.01 z"
       id="path6452" />
    <path
       inkscape:connector-curvature="0"
       style="fill:#ef0024;fill-opacity:1;stroke:none;stroke-opacity:1"
       d="m 321.04589,243.31954 c -0.0118,0 -0.0233,0.01 -0.0352,0.01 -0.0981,0.1424 -0.19568,0.2959 -0.11914,0.1836 0.0506,-0.074 0.10323,-0.1247 0.1543,-0.1934 z"
       id="path6450" />
    <path
       inkscape:connector-curvature="0"
       style="fill:#ef0024;fill-opacity:1;stroke:none;stroke-opacity:1"
       d="m 315.82909,247.37034 c -0.004,0 -0.008,0.01 -0.0117,0.014 0.11645,-0.053 0.27367,-0.1274 0.35546,-0.1602 0.15997,-0.064 -0.0816,0 -0.34375,0.1465 z"
       id="path6448" />
    <path
       inkscape:connector-curvature="0"
       style="fill:#ef0024;fill-opacity:1;stroke:none;stroke-opacity:1"
       d="m 315.81738,247.38404 c -0.009,0 -0.0183,0.01 -0.0273,0.012 -0.18484,0.1126 -0.37115,0.2608 -0.42578,0.4687 -0.0344,0.1311 0.19258,-0.1899 0.28906,-0.2851 0.0526,-0.067 0.11079,-0.129 0.16407,-0.1953 z"
       id="path6446" />
    <path
       inkscape:connector-curvature="0"
       style="fill:#ef0024;fill-opacity:1;stroke:none;stroke-opacity:1"
       d="m 305.43261,248.33514 c -0.11314,-3e-4 -0.20885,-0.01 -0.3457,-0.01 -0.15107,0.017 -0.27903,0.057 -0.37891,0.125 0.3703,0.966 0.19267,2.365 0.0449,3.668 0.19597,1.0218 0.3417,2.0546 0.13867,2.8398 0.013,0.021 0.0327,0.035 0.0469,0.055 0.11959,-0.7893 0.39299,-1.7187 0.6875,-2.666 -0.005,-0.9761 -0.002,-1.9533 -0.002,-2.9297 -0.0865,-0.392 -0.15143,-0.7615 -0.16602,-1.0821 -0.009,0 -0.0167,0 -0.0254,0 z"
       id="path6444" />
    <path
       inkscape:connector-curvature="0"
       style="fill:#ef0024;fill-opacity:1;stroke:none;stroke-opacity:1"
       d="m 293.22558,165.88984 c -0.14128,0.2151 -0.29114,0.4252 -0.42383,0.6446 0.24737,-0.301 0.37333,-0.4927 0.42383,-0.6446 z"
       id="path6442" />
    <path
       inkscape:connector-curvature="0"
       style="fill:#d4d4d4;fill-opacity:1;stroke:none;stroke-opacity:1"
       d="m 370.20605,172.08124 c 14.80351,12.0351 35.26709,35.8316 16.93945,50.1563 -3.15941,15.7664 30.40712,7.1372 11.68164,21.6543 -12.09871,6.7364 11.05651,9.4208 -7.77539,11.4961 -16.75952,-3.5507 -19.02892,-35.3192 -30.72266,-49.5742 -10.50933,-11.9573 -18.64605,-24.8846 3.69922,-30.0508 l 2.34571,-1.2129 3.83203,-2.4688 z"
       id="path6440" />
    <path
       style="fill:#a2a2a2;fill-opacity:1;stroke:none;stroke-opacity:1"
       d="m 73.543926,193.86644 c -0.92393,-0.1387 -2.20575,2.5143 -4.00586,9.4277 l 0,-5.248 c -3.51265,7.325 -3.90814,10.203 -5.00586,19.0508 -0.1127,0.9084 -0.21178,1.6588 -0.31445,2.4472 -3.23094,5.9023 -7.60124,11.0521 -12.19727,16.0098 -0.19796,0.1018 -0.40163,0.2095 -0.54492,0.2558 -10.44662,3.3823 -18.45367,15.8037 -22.27735,30.7149 -0.89229,2.7555 -1.50777,5.6695 -1.73437,8.8086 -0.0157,0.1212 -0.024,0.242 -0.0391,0.3633 -1.4667,11.0388 -0.67467,22.663 3.0039,32.5937 2.32706,7.5586 5.72227,14.7895 9.99219,21.5039 2.87991,5.5686 5.2416,9.6133 5.79102,9.6133 0.64356,0 2.88038,1.9473 4.9707,4.3281 0.36216,0.4125 0.85364,0.9105 1.39648,1.4375 6.04141,6.2141 12.91998,11.614 20.375,15.9668 2.10973,1.6389 4.11604,3.2289 5.60157,4.4746 3.78125,3.1709 8.28125,6.3832 10,7.1368 0.22444,0.098 0.46527,0.2413 0.71875,0.4179 7.82452,9.1381 11.439644,20.4136 12.183594,32.209 -0.38903,11.0657 -2.157314,25.0867 -4.857424,34.6543 -0.041,0.1453 -0.0742,0.316 -0.11328,0.4688 -0.36368,1.1205 -0.73784,2.2332 -1.13086,3.33 -0.44393,4.3604 -0.42027,8.6404 -0.0137,12.8282 0.19424,4.8956 0.80002,9.4324 1.79296,11.8906 0.78176,1.9354 1.41993,3.9876 1.41993,4.5605 0,1.6238 7.456854,15.3999 9.484374,17.5215 0.21036,0.2201 0.55268,0.6107 0.92188,1.0371 2.69767,3.7684 5.72292,7.3323 9.00195,10.6719 0.2367,0.2408 0.48578,0.4822 0.73242,0.7246 10.16337,10.1299 22.70602,18.0999 35.84181,23.0469 4.66106,2.0446 9.54636,3.6975 14.56054,4.9941 0.005,0 0.008,0 0.0137,0.01 1.76257,0.5611 3.80273,1.1229 5.69336,1.5508 1.5593,0.3528 3.96799,0.6433 6.86328,0.8711 7.23895,0.9398 14.60866,1.1342 21.90039,0.5625 7.20894,-0.1055 13.46139,-0.4904 15.61133,-1.1954 1.62111,-0.5315 5.61612,-2.2423 9.75586,-4.1484 5.20568,-1.8608 10.21032,-4.1739 14.9082,-6.9707 0.22646,-0.1006 0.77108,-0.357 0.93164,-0.4258 0.99377,-0.4254 2.47574,-1.4742 4.24414,-2.9375 7.14323,-5.0571 13.40901,-11.3341 18.38672,-18.8691 2.20751,-2.7084 3.89682,-5.0671 4.61133,-6.6074 1.4897,-3.2115 3.29075,-6.1992 4.00195,-6.6387 1.26795,-0.7837 5.77746,-9.9059 6.23828,-12.4668 12.26513,-13.7607 31.51036,-19.2539 50.56055,-18.5293 38.11122,-1.308 78.93537,-13.282 101.69531,-46.1875 9.41673,-14.6952 21.69277,-41.046 29.77233,-56.3929 -9.64497,-0.124 -10.6196,2.3889 -15.6942,1.0687 -1.4299,-0.372 -1.20213,-1.0134 -3.71485,-2.418 -0.99632,-0.5569 -4.3721,-2.2067 -4.64844,-3.4785 -0.0141,-0.065 -0.0138,-0.132 -0.0254,-0.1973 -0.0741,-0.08 -0.1436,-0.1648 -0.22265,-0.2402 -0.71153,-0.6782 -1.8204,-1.0842 -2.16211,-2.0059 -0.0295,-0.08 -0.0395,-0.2301 -0.0586,-0.3496 -0.64122,-0.5965 -1.50162,-1.5336 -1.73046,-2.2773 -0.0642,-0.2087 0.66401,0.5526 0.53711,0.375 -0.36573,-0.5118 -0.84519,-0.9323 -1.26758,-1.3985 -0.19965,-0.4146 -0.48138,-0.7993 -0.59961,-1.2441 -0.0251,-0.094 -0.0427,-0.1973 -0.0664,-0.2949 -0.11984,-0.1076 -0.17054,-0.1961 -0.0527,-0.2324 -0.0267,-0.1195 -0.0571,-0.2354 -0.0801,-0.3555 -0.0649,-0.1923 -0.12882,-0.3849 -0.19141,-0.5781 -0.10872,-0.1119 -0.22547,-0.2994 -0.3457,-0.5137 -0.68868,-0.2942 -1.86031,-0.5717 -2.47461,-0.7344 -1.05882,-1.2438 -1.68362,-2.0799 -2.14258,-2.7207 -0.0888,-0.055 -0.18569,-0.1168 -0.24219,-0.1465 -0.003,-0.01 -0.005,-0.014 -0.008,-0.022 -0.006,0 -0.0119,-0.01 -0.0176,-0.01 -0.15286,-0.073 -0.31777,-0.1334 -0.47851,-0.1973 0.0316,0.1766 0.047,0.2461 0.084,0.4981 0.0217,0.148 -0.0983,-0.2823 -0.13281,-0.4278 -0.007,-0.029 -0.0289,-0.075 -0.0391,-0.1074 -1.91879,-0.7418 -4.26319,-1.0131 -4.94727,-3.4414 -0.01,-0.07 -0.0445,-0.1816 -0.0664,-0.2715 -0.73646,-0.595 -1.23955,-0.6925 -2.3086,-1.1758 -1.66753,-1.2608 -1.4666,-0.9716 -2.99414,-2.8808 -0.0893,-0.1116 -0.30012,-0.3818 -0.1582,-0.3985 0.0245,0 0.0453,0.01 0.0684,0.014 -0.54856,-0.1586 -1.10118,-0.3005 -1.65039,-0.457 -0.87787,-0.4904 -1.80063,-0.9091 -2.63477,-1.4707 -0.60773,-0.4091 -2.65002,-2.1462 -4.22461,-4.1153 -1.15787,-0.463 -2.45218,-1.247 -2.77344,-1.4257 -4.10279,-2.2813 -8.10137,-4.7467 -12.26562,-6.918 -4.05917,-1.7636 -5.73674,-2.3652 -9.66797,-4.6309 -9.46462,-5.4548 -18.13539,-12.1544 -27.04883,-18.4336 -0.002,-0.3114 -0.0336,-0.6358 -0.0781,-0.9648 -1.32982,-0.4353 -2.63234,-1.237 -3.38086,-1.6387 -0.73578,-0.3948 -1.48577,-0.7649 -2.22852,-1.1465 -0.96696,-0.4229 -2.91344,-0.2122 -2.90039,-1.2675 0.0145,-1.1685 4.10271,-1.7987 2.93946,-1.9102 -1.39249,-0.1335 -2.39249,1.6194 -3.7754,1.8301 -1.42972,0.2179 -3.62811,-2.4204 -4.60742,-3.0254 -3.71106,-2.9299 -7.63355,-5.7559 -10.60742,-9.4707 -0.45532,-0.5508 -1.21939,-1.5124 -1.74219,-1.9824 -0.55839,-0.5019 -1.19045,-0.9181 -1.75586,-1.4121 -0.80944,-0.7072 -0.49756,-0.7038 -1.32617,-1.2286 -1.41447,-1.1168 -3.21528,-2.339 -3.76758,-4.1796 -0.0171,-0.057 -0.0432,-0.5513 -0.0605,-1.1426 -1.01095,-0.4048 -2.39261,-0.8784 -2.77149,-1.0586 -0.47284,-0.1606 -0.94514,-0.3218 -1.41797,-0.4824 -0.11273,-0.082 -0.20623,-0.1993 -0.33789,-0.2442 -1.47566,-0.5031 -3.05994,-0.6171 -4.55859,-1.0469 -0.6309,-0.1809 -4.30759,-1.5909 -5.08008,-1.8847 -0.73979,-0.3155 -1.51186,-0.5673 -2.2207,-0.9473 -0.0587,-0.031 0.0328,-0.138 0.11914,-0.2461 -0.70573,-0.025 -1.40214,-0.071 -2.09961,-0.1211 -0.17053,0.043 -0.32366,0.069 -0.37305,-0.025 -0.15001,-0.011 -0.30188,-0.02 -0.45117,-0.031 -0.20103,0.01 -0.42655,0.016 -0.70312,0.012 -0.3889,0.5591 -1.22926,0.2817 -2.06055,-0.033 -1.56028,-0.037 -3.12186,-0.01 -4.68164,0.057 -0.36882,-0.1144 -0.76088,-0.1695 -1.10547,-0.3437 -1.49131,-0.7542 -2.94672,-2.5217 -5.79688,-3.1524 -2.09239,-0.6909 -0.94057,-0.402 -3.47851,-0.7773 -1.00671,-0.3146 -1.8141,-1.0026 -2.38281,-1.8613 -0.76489,-0.3226 -1.53192,-0.6456 -2.29493,-0.9649 -4.39781,-2.2658 -8.64032,-4.9426 -12.3457,-8.2441 -0.18422,-0.1641 -0.28618,-0.2756 -0.43164,-0.416 -0.30125,0.08 -0.61349,0.2078 -0.67578,-0.025 -0.0264,-0.099 -0.0447,-0.1993 -0.0684,-0.2988 -0.81848,0.2078 -1.70191,0.2861 -2.50977,0.5156 0.0547,-0.7798 0.0315,-1.5765 0.006,-2.375 -0.90131,-0.3527 -1.62693,-0.7924 -2.24414,-1.3711 0.0682,0.2801 0.17682,0.5468 0.29493,0.8086 0.1379,0.2138 0.28284,0.6125 0.20507,0.4512 -0.0681,-0.1413 -0.13626,-0.2987 -0.20507,-0.4512 -0.0226,-0.035 -0.041,-0.095 -0.0625,-0.1153 -0.33389,-0.3092 -0.72086,-0.5531 -1.08204,-0.83 -0.0148,-0.01 -2.24365,-0.5189 -1.59179,-1.3965 0.08,-0.1077 0.2329,-0.2276 0.40234,-0.3477 -0.58773,-0.1648 -1.17297,-0.3379 -1.73633,-0.5703 -0.0755,-0.031 -0.1458,-0.064 -0.2207,-0.096 -2.53269,0.3294 -1.7615,1.5981 -3.27148,0.01 -0.51772,-0.5318 -1.03444,-1.0664 -1.55274,-1.5977 -0.27753,-0.2845 -0.537,-0.5861 -0.83789,-0.8457 -0.0594,-0.051 -0.18621,-0.125 -0.28906,-0.1875 -2.40861,-0.6059 -4.02907,-1.7136 -5.70313,-3.7051 -1.11486,-0.6836 -2.21517,-1.3818 -3.30273,-2.0918 -1.6526,-0.4791 -3.38831,-0.7765 -4.70899,-1.9296 -0.18884,-0.2288 -0.38593,-0.451 -0.58007,-0.6758 -0.20109,0.013 -0.40228,0.024 -0.60352,0.037 -0.0375,0.056 -0.0822,0.1028 -0.12305,0.1543 1.55076,48.2276 12.48799,96.5408 39.57227,136.9687 15.4943,25.0255 22.24044,59.0977 3.89453,84.5567 -24.35683,35.4304 -76.63123,36.5778 -111.47461,17.2656 -20.99186,-11.5029 -39.64717,-33.4005 -39.07422,-58.2617 7.35905,-13.8942 18.10748,-27.978 13.10742,-42.9922 14.64989,-24.9065 -2.67521,-52.4023 -25.54102,-64.3496 -25.102964,-14.6321 -42.022124,-41.0245 -43.115244,-70.2403 -1.03869,-7.8154 -0.74663,-31.5037 -3.4414,-31.9082 z"
       id="path6438"
       inkscape:connector-curvature="0"
       sodipodi:nodetypes="cccsccccccccscccccccccccssccccccccccccccccscccccacccccccccccccccccccccccccccccccccccsccccccccccscccccccccccccccccccccccccccccccccccccccccccccccccccccccc" />
    <path
       inkscape:connector-curvature="0"
       style="fill:#ef0024;fill-opacity:1;stroke:none;stroke-opacity:1"
       d="m 429.09667,334.96404 c 0.0607,0.028 0.1241,0.054 0.1875,0.08 -0.12742,-0.1792 -0.23011,-0.3223 -0.31836,-0.4492 0.0385,0.1292 0.0768,0.259 0.13086,0.3691 z"
       id="path6436" />
    <path
       inkscape:connector-curvature="0"
       style="fill:#ef0024;fill-opacity:1;stroke:none;stroke-opacity:1"
       d="m 429.28417,335.04414 c 0.025,0.035 0.0359,0.051 0.0625,0.088 0.20756,0.1293 0.41913,0.2617 0.32227,0.1485 -0.0987,-0.1154 -0.24027,-0.1773 -0.38477,-0.2364 z"
       id="path6434" />
    <path
       inkscape:connector-curvature="0"
       style="fill:#ef0024;fill-opacity:1;stroke:none;stroke-opacity:1"
       d="m 433.96386,338.58714 c 0.0395,0.017 0.0929,0.034 0.12891,0.051 0.019,0.01 0.0501,0.019 0.0723,0.027 -0.21973,-0.6782 -0.44751,-1.3541 -0.73828,-2.0039 -1.13712,-2.5411 -0.25483,0.5141 0.53711,1.9258 z"
       id="path6432" />
    <path
       inkscape:connector-curvature="0"
       style="fill:#ef0024;fill-opacity:1;stroke:none;stroke-opacity:1"
       d="m 434.16503,338.66524 c 0.0472,0.1456 0.0974,0.2899 0.14453,0.4356 0.0423,0.043 0.0841,0.087 0.12305,0.1093 -0.0222,-0.1572 -0.0534,-0.3203 -0.0644,-0.4668 -0.0728,-0.026 -0.14068,-0.053 -0.20313,-0.078 z"
       id="path6430" />
    <path
       inkscape:connector-curvature="0"
       style="fill:#ef0024;fill-opacity:1;stroke:none;stroke-opacity:1"
       d="m 239.63964,212.77654 c -0.002,0.01 -0.004,0.016 -0.006,0.025 0.10356,0.1909 0.12083,0.2212 0.006,-0.025 z"
       id="path6428" />
    <path
       inkscape:connector-curvature="0"
       style="fill:#ef0024;fill-opacity:1;stroke:none;stroke-opacity:1"
       d="m 240.62011,222.61834 c 0.1665,0.08 0.33999,0.1466 0.51953,0.1817 0.07,0.014 0.21341,-0.1495 0.14258,-0.1582 -0.22006,-0.027 -0.4402,-0.03 -0.66211,-0.024 z"
       id="path6426" />
    <path
       inkscape:connector-curvature="0"
       style="fill:#ef0024;fill-opacity:1;stroke:none;stroke-opacity:1"
       d="m 326.96581,238.09304 c -0.17923,0.01 -0.35417,0.096 -0.52148,0.2558 0.0324,0.024 0.0675,0.045 0.0996,0.07 1.54237,1.1956 1.95798,1.6182 2.75781,2.4649 -0.50235,-1.2254 -1.45521,-2.8222 -2.33594,-2.791 z"
       id="path6424" />
    <path
       inkscape:connector-curvature="0"
       style="fill:#ef0024;fill-opacity:1;stroke:none;stroke-opacity:1"
       d="m 328.69238,241.08514 c -0.95613,0.1212 -1.79212,0.6272 -2.60352,1.1973 0.30452,0.7874 0.72303,1.5764 1.10742,2.3652 1.2134,-0.4648 2.53916,-1.4084 2.46484,-2.5879 -0.008,-0.1252 -0.0554,-0.3174 -0.12109,-0.5332 -0.24461,-0.2768 -0.50656,-0.4846 -0.84765,-0.4414 z"
       id="path6422" />
    <path
       inkscape:connector-curvature="0"
       style="fill:#ef0024;fill-opacity:1;stroke:none;stroke-opacity:1"
       d="m 325.27245,261.88404 c 0.22553,0.2198 0.45003,0.4186 0.37305,0.2422 -0.0249,-0.057 -0.17618,-0.1453 -0.37305,-0.2422 z"
       id="path6420" />
    <path
       inkscape:connector-curvature="0"
       style="fill:#ef0024;fill-opacity:1;stroke:none;stroke-opacity:1"
       d="m 413.84667,318.19064 c -0.26743,0.3638 -0.53661,0.7243 -0.82226,1.0664 2.24929,1.1521 0.70037,0.7202 0.82226,-1.0664 z"
       id="path6418" />
    <path
       inkscape:connector-curvature="0"
       style="fill:#ef0024;fill-opacity:1;stroke:none;stroke-opacity:1"
       d="m 418.22753,326.60474 c 0.14388,0.083 0.27265,0.2457 0.43359,0.2929 0.0647,0.019 0.23143,-0.088 0.16797,-0.1113 -0.19715,-0.071 -0.40094,-0.122 -0.60156,-0.1816 z"
       id="path6416" />
    <path
       inkscape:connector-curvature="0"
       style="fill:#ef0024;fill-opacity:1;stroke:none;stroke-opacity:1"
       d="m 430.1162,328.93084 c 0.26402,1.263 0.31207,1.9147 0.16602,0.1954 -0.0558,-0.064 -0.10943,-0.131 -0.16602,-0.1954 z"
       id="path6414" />
    <path
       inkscape:connector-curvature="0"
       style="fill:#ef0024;fill-opacity:1;stroke:none;stroke-opacity:1"
       d="m 437.708,334.08714 c -0.24398,-0.033 -0.35987,0.018 -0.22461,0.2012 0.70043,0.9494 1.75164,1.5697 2.70899,2.2812 -0.0659,-0.4565 -0.13558,-0.9594 -0.18555,-1.2324 0.31368,-0.2973 -1.56689,-1.1508 -2.29883,-1.25 z"
       id="path6412" />
    <path
       inkscape:connector-curvature="0"
       style="fill:#ef0024;fill-opacity:1;stroke:none;stroke-opacity:1"
       d="m 441.51073,338.61254 c -0.0602,0.2 -0.12189,0.4023 -0.11523,0.5898 0.008,0.2311 0.0769,-0.2279 0.11523,-0.5898 z"
       id="path6410" />
    <path
       inkscape:connector-curvature="0"
       style="fill:#ef0024;fill-opacity:1;stroke:none;stroke-opacity:1"
       d="m 437.77636,341.60664 c -0.0332,0.3001 -0.11375,1.0475 -0.29297,2.6035 0.0656,0.078 0.14287,0.1479 0.21289,0.2227 -0.0465,-1.3233 0.11256,-3.0492 0.084,-2.8262 -10e-4,-2e-4 -0.003,3e-4 -0.004,0 z"
       id="path5970" />
    <path
       inkscape:connector-curvature="0"
       style="fill:#b9b9b9;stroke:none;stroke-opacity:1"
       d="m 275.12011,282.98944 c -0.022,0.2736 0.52674,0.8992 0.39453,0.6856 -0.1386,-0.224 -0.26092,-0.4584 -0.39453,-0.6856 z"
       id="path5817" />
    <path
       inkscape:connector-curvature="0"
       style="fill:#b9b9b9;stroke:none;stroke-opacity:1"
       d="m 276.83886,302.66914 c 0.0213,0.055 0.0545,0.1567 0.0879,0.25 0.0115,0.01 0.0276,0.028 0.0371,0.035 -0.15785,-0.3698 -0.16613,-0.3913 -0.125,-0.2852 z"
       id="path5815" />
    <path
       inkscape:connector-curvature="0"
       style="fill:#b9b9b9;stroke:none;stroke-opacity:1"
       d="m 300.62011,345.03244 c -0.0463,0 -0.0877,0.01 -0.12109,0.027 -0.98823,0.5789 -1.92803,1.2443 -2.82422,1.9649 0.89511,-0.2525 2.05331,-0.6751 3.59375,-1.4453 0.24203,-0.121 -0.32449,-0.5468 -0.64844,-0.5469 z"
       id="path5813" />
    <path
       inkscape:connector-curvature="0"
       style="fill:#b9b9b9;stroke:none;stroke-opacity:1"
       d="m 299.4248,380.04024 c 0.007,0.03 0.031,0.1312 0.0488,0.2149 0.0235,0.064 0.0258,0.116 0.0586,0.1855 -0.0981,-0.3655 -0.11681,-0.4397 -0.10742,-0.4004 z"
       id="path5778" />
    <path
       inkscape:connector-curvature="0"
       style="fill:#a5a5a5;stroke:none;stroke-opacity:1"
       d="m 256.22362,252.79224 c -0.0462,-0.3929 -0.086,-0.7873 -0.10546,-1.1817 -1.9685,0.4625 -4.24036,0 -6.08008,-0.8125 0,0 -0.002,0 -0.002,0 -0.49037,0.5309 0.90207,1.6185 1.27344,2.4043 1.60213,-0.1161 3.23244,-0.027 4.80664,-0.3476 0.0472,-0.01 0.0724,-0.041 0.10742,-0.062 z"
       id="path5957" />
    <path
       inkscape:connector-curvature="0"
       style="fill:#a5a5a5;stroke:none;stroke-opacity:1"
       d="m 256.11816,251.61054 c 0.0342,-0.01 0.0695,-0.013 0.10351,-0.022 -0.0627,-0.1117 -0.11369,-0.1538 -0.10742,-0.018 6.1e-4,0.013 0.003,0.026 0.004,0.039 z"
       id="path5955" />
    <path
       inkscape:connector-curvature="0"
       style="fill:#a5a5a5;stroke:none;stroke-opacity:1"
       d="m 250.23534,200.63794 c -0.004,-0.01 -0.008,-0.014 -0.0117,-0.022 0.0763,0.3295 0.15248,0.6591 0.23047,0.9883 0.0784,0.3306 -0.10302,-0.5787 -0.21875,-0.9668 z"
       id="path5953" />
    <path
       inkscape:connector-curvature="0"
       style="fill:#a5a5a5;stroke:none;stroke-opacity:1"
       d="m 250.22362,200.61644 c -0.006,-0.026 -0.0116,-0.052 -0.0176,-0.078 -0.0616,-0.1635 -0.31656,-0.5425 -0.24219,-0.4024 0.0842,0.1585 0.17238,0.3204 0.25976,0.4805 z"
       id="path5951" />
    <path
       inkscape:connector-curvature="0"
       style="fill:#a5a5a5;stroke:none;stroke-opacity:1"
       d="m 249.75097,198.40744 c -0.009,-0.011 -0.0242,0 -0.0488,0.037 -0.0525,0.084 -0.0235,0.1945 0.0254,0.3086 0.023,-0.1586 0.0454,-0.3185 0.0234,-0.3457 z"
       id="path5947" />
    <path
       inkscape:connector-curvature="0"
       style="fill:#a5a5a5;stroke:none;stroke-opacity:1"
       d="m 251.56933,205.77854 c 0.0948,0.204 0.14642,0.2964 0.20703,0.4141 -0.0272,-0.1392 -0.024,-0.171 -0.0527,-0.252 -0.0248,-0.07 -0.18557,-0.2294 -0.15429,-0.1621 z"
       id="path5945" />
    <path
       inkscape:connector-curvature="0"
       style="fill:#a5a5a5;stroke:none;stroke-opacity:1"
       d="m 245.88769,218.50514 c 0.0474,0.144 0.0926,0.2891 0.13867,0.4336 -0.0399,-0.2049 -0.18849,-0.585 -0.13867,-0.4336 z"
       id="path5943" />
    <path
       inkscape:connector-curvature="0"
       style="fill:#a5a5a5;stroke:none;stroke-opacity:1"
       d="m 300.39745,389.07934 c -0.0174,-0.01 -0.0927,0.01 -0.24023,0.045 -0.35265,0.094 -0.69059,0.3218 -1.02149,0.5879 0.72312,-0.3368 1.31962,-0.6073 1.26172,-0.6328 z"
       id="path5934" />
    <path
       inkscape:connector-curvature="0"
       style="fill:#a5a5a5;stroke:none;stroke-opacity:1"
       d="m 136.42284,431.18474 c -0.46618,0.6178 -1.50903,0.6075 -1.9707,1.2286 -0.39652,0.5336 1.20376,-0.5761 1.75781,-0.9434 0.0995,-0.066 0.15501,-0.177 0.21289,-0.2852 z"
       id="path5932" />
    <path
       inkscape:connector-curvature="0"
       style="fill:#a5a5a5;stroke:none;stroke-opacity:1"
       d="m 287.55956,448.99734 c 0.003,0 0.005,0 0.008,0 -0.002,0 -0.002,-0.01 -0.008,-0.012 -0.0362,-0.01 -0.0725,-0.015 -0.10937,-0.025 0.0363,0.014 0.073,0.027 0.10937,0.041 z"
       id="path5921" />
    <path
       inkscape:connector-curvature="0"
       style="fill:#a5a5a5;stroke:none;stroke-opacity:1"
       d="m 104.92479,302.82934 c -0.008,0.01 -0.0152,0.012 -0.0234,0.018 0.0969,0.086 0.19107,0.1749 0.28906,0.2597 0.0967,0.084 -0.15829,-0.3469 -0.26562,-0.2773 z"
       id="path5919" />
    <path
       inkscape:connector-curvature="0"
       style="fill:#a5a5a5;stroke:none;stroke-opacity:1"
       d="m 130.15331,358.01684 c 0.11927,0.6988 0.0897,1.1597 0.0488,1.8613 0.0109,0.1718 0.0404,0.3907 0.0605,0.5762 0.081,-0.1648 0.16884,-0.3218 0.29492,-0.5801 0.16668,-0.5655 0.11589,-1.1324 0.0645,-1.7109 -0.0476,0.01 -0.13087,-0.1162 -0.20117,-0.1348 -0.0585,-0.015 -0.12044,-0.011 -0.18164,-0.01 0.0202,0.2592 0.0957,0.485 0.0117,0.3359 -0.0577,-0.1025 -0.0679,-0.223 -0.0899,-0.3398 -0.003,-5e-4 -0.005,5e-4 -0.008,0 z"
       id="path5917" />
    <path
       inkscape:connector-curvature="0"
       style="fill:#a5a5a5;stroke:none;stroke-opacity:1"
       d="m 132.96581,365.20434 c 0.10201,0.1885 0.21752,0.6157 0.1543,0.459 -0.0604,-0.1496 -0.10498,-0.3047 -0.1543,-0.459 z"
       id="path5915" />
    <path
       inkscape:connector-curvature="0"
       style="fill:#a5a5a5;stroke:none;stroke-opacity:1"
       d="m 129.94628,366.63204 c -0.05,0.015 -0.0999,0.032 -0.15234,0.045 0.0206,0.034 0.0319,0.054 0.0527,0.088 0.0256,-0.041 0.0617,-0.071 0.125,-0.07 -0.008,-0.021 -0.0173,-0.042 -0.0254,-0.062 z"
       id="path5913" />
    <path
       inkscape:connector-curvature="0"
       style="fill:#a5a5a5;stroke:none;stroke-opacity:1"
       d="m 129.75878,366.68674 c -0.0689,0.017 -0.14381,0.038 -0.21875,0.055 6.9e-4,0.1973 -7.5e-4,0.3945 0,0.5918 -0.003,1.1086 -0.003,2.2175 -0.002,3.3262 -0.40933,-0.3114 -0.20622,-0.011 -0.0703,0.2246 0.0233,0 0.047,0 0.0703,-0.01 0.0449,0 0.045,0.1319 0,0.1348 -0.001,10e-5 -0.003,-10e-5 -0.004,0 0.0226,0.051 0.0344,0.09 0.006,0.09 -0.3332,0 -0.66671,-0.01 -1,-0.01 0.33801,0.053 0.67174,0.1207 0.99805,0.2246 0.2201,0.07 -1e-5,0.4623 0,0.6933 9e-5,1.3085 3e-5,2.6173 0,3.9258 0.0808,0.183 0.13863,0.3893 0.20117,0.5898 0.11358,-0.079 0.23579,-0.1501 0.375,-0.205 0.0622,-0.6396 0.38527,-1.3057 0.79492,-1.7012 0.0216,0.076 -0.009,0.1996 0.0645,0.2266 0.0255,0.01 -0.0124,-0.095 -0.0254,-0.5098 -0.0136,-0.4362 -0.0116,-0.8746 0.11133,-1.2871 -0.11954,-0.4742 -0.44009,-1.4001 -0.44726,-1.5781 -0.37753,-1.2133 -0.63029,-2.5022 -0.68555,-3.7754 -0.0108,-0.2489 -0.16522,-0.6814 -0.10547,-0.8868 -0.0236,-0.045 -0.0403,-0.08 -0.0625,-0.123 z"
       id="path5911" />
    <path
       inkscape:connector-curvature="0"
       style="fill:#a5a5a5;stroke:none;stroke-opacity:1"
       d="m 131.07519,373.16334 c -0.0242,0.1014 -0.0306,0.172 0.0156,0.1679 0.019,0 -0.003,-0.095 -0.0156,-0.1679 z"
       id="path5909" />
    <path
       inkscape:connector-curvature="0"
       style="fill:#a5a5a5;stroke:none;stroke-opacity:1"
       d="m 134.44823,374.10664 c -0.0473,0.1133 -0.0961,0.2252 -0.13867,0.3399 0.14014,0.168 0.12261,-0.153 0.13867,-0.3399 z"
       id="path5907" />
    <path
       inkscape:connector-curvature="0"
       style="fill:#a5a5a5;stroke:none;stroke-opacity:1"
       d="m 129.99316,376.78444 c -0.02,0.017 -0.0386,0.044 -0.0547,0.076 0.0213,-0.028 0.0337,-0.048 0.0547,-0.076 z"
       id="path5905" />
    <path
       inkscape:connector-curvature="0"
       style="fill:#a5a5a5;stroke:none;stroke-opacity:1"
       d="m 129.97167,378.21994 c 0.008,0.089 0.002,0.069 0.0137,0.1875 0.005,0.052 -0.004,-0.1005 0.0274,-0.1465 -0.0135,-0.014 -0.0274,-0.027 -0.041,-0.041 z"
       id="path5903" />
    <path
       inkscape:connector-curvature="0"
       style="fill:#a5a5a5;stroke:none;stroke-opacity:1"
       d="m 130.08105,378.33124 c 0.005,0.037 0.007,0.076 0.0312,0.096 0.064,0.053 0.0904,0.068 0.0977,0.061 -0.0152,-0.024 -0.0305,-0.048 -0.0469,-0.072 -0.0268,-0.029 -0.055,-0.056 -0.082,-0.084 z"
       id="path5901" />
    <path
       inkscape:connector-curvature="0"
       style="fill:#a5a5a5;stroke:none;stroke-opacity:1"
       d="m 130.20995,378.48754 c 0.27187,0.4242 0.41037,0.7754 0.4961,1.0996 0.11529,-0.039 0.23476,-0.087 0.44336,-0.1699 -0.341,-0.2836 -0.64295,-0.6331 -0.95508,-0.9688 0.007,0.015 0.0195,0.035 0.0156,0.039 z"
       id="path5899" />
    <path
       inkscape:connector-curvature="0"
       style="fill:#a5a5a5;stroke:none;stroke-opacity:1"
       d="m 128.98534,384.17894 c 0.0235,0.066 0.0339,0.099 0.0606,0.1426 0.0249,0.041 0.13036,0.1386 0.10547,0.098 -0.0503,-0.083 -0.11134,-0.1596 -0.16602,-0.2402 z"
       id="path5897" />
    <path
       inkscape:connector-curvature="0"
       style="fill:#a5a5a5;stroke:none;stroke-opacity:1"
       d="m 131.23534,404.53834 c -0.0538,0.085 -0.10426,0.1732 -0.15625,0.2597 -0.11491,0.2694 0.14372,-0.1495 0.15821,-0.2402 0.001,-0.01 -0.002,-0.01 -0.002,-0.019 z"
       id="path5895" />
    <path
       inkscape:connector-curvature="0"
       style="fill:#a5a5a5;stroke:none;stroke-opacity:1"
       d="m 133.02245,428.09494 c -0.65141,-1e-4 -1.21463,0.1049 -1.42187,0.6387 -0.39342,1.0133 2.16097,-0.2434 3.24609,-0.3067 0.0395,0 -0.0105,0.1405 0.0215,0.1172 0.11178,-0.081 0.007,-0.3848 0.0723,-0.4453 -0.55805,0.096 -1.27996,0 -1.91797,0 z"
       id="path5893" />
    <path
       inkscape:connector-curvature="0"
       style="fill:#a5a5a5;stroke:none;stroke-opacity:1"
       d="m 134.83105,428.73364 c -0.0421,-0.1278 -1.4519,0.8665 -1.8125,1.3769 -0.0398,0.056 -0.0535,0.1224 -0.0664,0.1875 0.23884,-0.068 0.77331,-0.1868 1.80664,-1.4355 0.0569,-0.069 0.0783,-0.1107 0.0723,-0.1289 z"
       id="path5891" />
    <path
       inkscape:connector-curvature="0"
       style="fill:#a5a5a5;stroke:none;stroke-opacity:1"
       d="m 291.49511,447.29224 c 0.0544,0.1115 0.10419,0.2254 0.16992,0.3301 0.0518,0.082 -0.10573,-0.2006 -0.15234,-0.3223 -0.006,0 -0.0111,0 -0.0176,-0.01 z"
       id="path5889" />
    <path
       inkscape:connector-curvature="0"
       style="fill:#a5a5a5;stroke:none;stroke-opacity:1"
       d="m 291.58691,447.34494 c 0.10806,0.1323 0.18029,0.2961 0.27343,0.4414 0.33718,-0.091 0.0632,-0.2755 -0.27343,-0.4414 z"
       id="path5887" />
    <path
       inkscape:connector-curvature="0"
       style="fill:#a5a5a5;stroke:none;stroke-opacity:1"
       d="m 292.44042,448.28054 c -0.0112,-0.01 5e-5,0.013 0.041,0.059 0.23988,0.2668 0.43346,0.4645 0.58789,0.6348 -0.2493,-0.3341 -0.58643,-0.6737 -0.62891,-0.6933 z"
       id="path5885" />
    <path
       inkscape:connector-curvature="0"
       style="fill:#a5a5a5;stroke:none;stroke-opacity:1"
       d="m 293.17284,449.12034 c 0.0149,0.1631 0.0237,0.3281 0.0527,0.4863 0.17075,-0.059 0.0891,-0.2624 -0.0527,-0.4863 z"
       id="path5883" />
    <path
       inkscape:connector-curvature="0"
       style="fill:#a5a5a5;stroke:none;stroke-opacity:1"
       d="m 288.61425,449.15354 c 0.004,0 0.0118,0.014 0.0156,0.018 0.0453,0.043 0.20729,0.131 0.16601,0.084 -0.0459,-0.052 -0.11265,-0.078 -0.18164,-0.1016 z"
       id="path5881" />
    <path
       inkscape:connector-curvature="0"
       style="fill:#a5a5a5;stroke:none;stroke-opacity:1"
       d="m 286.13378,449.64574 c -0.0629,0.06 -0.12807,0.1165 -0.1914,0.1758 0.0365,-0.014 0.0524,-0.013 0.0762,-0.025 0.0564,-0.029 0.0767,-0.1001 0.11523,-0.1504 z"
       id="path5879" />
    <path
       inkscape:connector-curvature="0"
       style="fill:#a5a5a5;stroke:none;stroke-opacity:1"
       d="m 290.34472,450.49144 c 0.009,0.01 0.0155,0.014 0.0254,0.023 0.0587,0.01 0.10877,0.01 0.17187,0.022 -0.0766,-0.019 -0.1347,-0.031 -0.19726,-0.045 z"
       id="path5877" />
    <path
       inkscape:connector-curvature="0"
       style="fill:#a5a5a5;stroke:none;stroke-opacity:1"
       d="m 290.35644,451.08514 c 0.2984,0.2928 0.72782,0.6207 0.53125,0.4493 -0.24725,-0.2156 -0.39978,-0.339 -0.53125,-0.4493 z"
       id="path5875" />
    <path
       inkscape:connector-curvature="0"
       style="fill:#a5a5a5;stroke:none;stroke-opacity:1"
       d="m 152.37402,455.67504 c 1.7e-4,0 -1.9e-4,0.01 0,0.01 0.5081,0.094 0.32272,0.058 0,-0.01 z"
       id="path5873" />
    <path
       inkscape:connector-curvature="0"
       style="fill:#a5a5a5;stroke:none;stroke-opacity:1"
       d="m 273.45995,462.61054 -0.9707,0.2246 c -0.26223,0.1037 0.55933,-0.057 0.83984,-0.086 0.0461,-0.035 0.0884,-0.089 0.13086,-0.1387 z"
       id="path5871" />
    <path
       inkscape:connector-curvature="0"
       style="fill:#a5a5a5;stroke:none;stroke-opacity:1"
       d="m 208.62011,477.01094 c 0.5991,0.1958 0.46815,0.1621 0.5957,0.2071 -0.19447,-0.078 -0.39867,-0.1344 -0.5957,-0.2071 z"
       id="path5869" />
    <path
       inkscape:connector-curvature="0"
       style="fill:#a5a5a5;stroke:none;stroke-opacity:1"
       d="m 209.3623,477.28054 c 0.14206,0.159 0.28822,0.3066 0.43359,0.4726 0.12581,0.1437 -0.20177,-0.3415 -0.36328,-0.4434 -0.0216,-0.014 -0.048,-0.017 -0.0703,-0.029 z"
       id="path5867" />
    <path
       inkscape:connector-curvature="0"
       style="fill:#a5a5a5;stroke:none;stroke-opacity:1"
       d="m 237.86425,480.39574 c 0.23671,0.5394 0.31425,0.9346 0.26367,1.2129 0.15605,-0.2278 0.18415,-0.4605 -0.0566,-1.0156 -0.037,-0.085 -0.11957,-0.1434 -0.20703,-0.1973 z"
       id="path5791" />
    <path
       inkscape:connector-curvature="0"
       style="fill:#a2a2a2;stroke:none;stroke-opacity:1"
       d="m 343.60839,80.973842 c -0.0775,0.034 -0.16601,0.07 -0.24219,0.1035 0.18829,0.015 0.51474,0.074 0.40039,-0.01 -0.0493,-0.036 -0.1058,-0.063 -0.1582,-0.096 z"
       id="path4686" />
    <path
       style="fill:#878787;fill-opacity:1;fill-rule:evenodd;stroke:none;stroke-opacity:1"
       d="m 397.47753,33.159442 c -26.01763,6.768399 -23.84862,47.99 -57.37592,46.9525 -59.7419,19.997398 -89.17977,88.818298 -85.1912,148.170598 -0.72966,48.4567 48.84858,79.0403 52.42429,125.9373 -8.02055,27.1892 2.42983,51.1181 33.66191,40.3825 25.51229,-5.7829 45.26192,-9.836 63.41217,-22.1005 24.29983,-9.4573 58.44672,-4.4432 69.76173,-34.3276 18.81314,-40.8285 13.77463,-87.41 -0.003,-128.8671 -6.49262,-27.9443 -17.07794,-73.1877 -42.72474,-81.0996 -11.85917,21.5104 -25.79501,46.9632 -20.2508,72.0884 11.9642,18.7084 29.37482,29.3926 22.4719,55.5221 3.58136,17.3435 -13.83232,7.1199 -11.73356,23.1734 -26.82057,20.4695 -45.0259,-6.526 -68.90869,-16.8983 -21.8465,-27.2272 -23.70341,-57.739 -40.05542,-85.6025 -1.00144,-13.0651 -28.81507,-5.0063 -17.14318,-27.9444 4.70291,-35.8876 40.05708,-60.733398 73.62097,-65.959198 27.27093,-1.7905 42.76536,21.036198 62.05846,35.541098 C 410.10153,94.907642 397.5407,67.588042 401.58777,36.237642 l -4.1098,-3.0782 0,0 z"
       id="path7512"
       inkscape:connector-curvature="0" />
    <path
       inkscape:connector-curvature="0"
       style="fill:#b2fb5d;fill-opacity:1;fill-rule:evenodd;stroke:none;stroke-opacity:1"
       d="m 386.08886,381.63984 c 0.0546,0.061 0.1184,0.121 0.17578,0.1817 0.47627,-0.5693 1.03992,-1.1966 1.64453,-1.793 -0.3252,0.054 -0.69933,0.1091 -0.89844,0.1562 -0.52587,0.8376 -0.60956,0.9646 -0.92187,1.4551 z"
       id="path7510" />
    <path
       style="fill:#6a6a6a;fill-opacity:1;fill-rule:evenodd;stroke:none;stroke-opacity:1"
       d="m 237.3037,173.19064 c 6.20706,40.51 -0.7424,82.6102 13.01258,122.0268 3.98316,23.5165 15.61542,43.1236 28.32118,62.7037 11.00191,23.069 22.6476,50.1096 10.21232,75.1093 -11.07782,29.5796 -43.93382,43.0915 -73.75761,40.584 -35.5257,-1.0096 -76.66112,-23.9637 -80.26789,-62.322 4.06162,-28.4422 28.10627,-56.3592 12.93083,-85.8072 -12.46096,-29.0646 -49.884004,-34.9213 -61.158624,-64.9269 -9.7457,-20.4122 -12.10948,-43.5725 -10.77949,-65.927 -17.10908,9.7412 -5.78217,43.5679 -6.1222,63.1838 -1.83661,30.292 2.82033,62.0702 24.79968,84.9787 25.692874,19.9762 36.156094,49.8561 34.079964,81.5092 1.43754,33.5132 15.54204,70.4886 49.30123,83.2919 29.71678,15.8618 69.76386,9.0652 89.27907,-19.4983 11.49328,-19.7365 26.60617,-48.1736 53.9409,-43.571 43.68658,2.5532 95.87204,-10.1784 115.83806,-53.5185 20.78758,-26.3324 -15.92194,-17.0474 -28.78245,-7.4467 -22.21861,4.2198 -42.57118,19.5899 -64.78557,20.2831 -17.82263,1.5968 -55.81923,11.2705 -47.26204,-19.5437 5.08103,-31.3044 -5.43487,-62.8215 -25.33316,-87.1078 -21.70619,-28.5124 -31.12049,-65.1952 -25.07343,-100.5595 0.10683,-8.4073 -1.63589,-17.7321 -8.39335,-23.4419 z"
       id="path7508"
       inkscape:connector-curvature="0" />
    <path
       inkscape:connector-curvature="0"
       style="fill:#b2fb5d;fill-opacity:1;fill-rule:evenodd;stroke:none;stroke-opacity:1"
       d="m 304.1162,340.96014 c -1.33874,0.058 -3.83659,0.4963 -5.00976,0.5 -0.12719,0.2895 -0.25182,0.5805 -0.38086,0.8692 1.97807,-0.3053 4.41422,0.2863 6.01172,-0.8848 0.56769,-0.4162 0.18215,-0.519 -0.6211,-0.4844 z"
       id="path7506" />
    <path
       inkscape:connector-curvature="0"
       style="fill:#b2fb5d;fill-opacity:1;fill-rule:evenodd;stroke:none;stroke-opacity:1"
       d="m 297.43652,345.26294 c -0.0425,0.101 -0.091,0.1995 -0.13282,0.3008 -0.028,0.068 0.18027,-0.073 0.16602,-0.1446 -0.0103,-0.052 -0.0228,-0.1041 -0.0332,-0.1562 z"
       id="path7504" />
    <path
       inkscape:connector-curvature="0"
       style="fill:#b2fb5d;fill-opacity:1;fill-rule:evenodd;stroke:none;stroke-opacity:1"
       d="m 419.6123,369.54414 c 0.0874,-0.077 -3.54257,1.6391 -4.97461,1.6035 -0.14525,0 -0.21175,-0.036 -0.22461,-0.088 -0.22205,0.2034 -0.48837,0.4464 -0.44531,0.4376 1.84615,-0.3819 3.68953,-0.9276 5.36132,-1.7989 0.18148,-0.095 0.27072,-0.1432 0.28321,-0.1543 z"
       id="path7502" />
    <path
       inkscape:connector-curvature="0"
       style="fill:#b2fb5d;fill-opacity:1;fill-rule:evenodd;stroke:none;stroke-opacity:1"
       d="m 415.708,370.58904 c 0.31875,-0.067 -0.64175,0.1082 -0.96289,0.1622 0.0621,-0.054 -0.0612,0.054 -0.0352,0.031 0.32836,-0.059 0.79471,-0.1508 0.99805,-0.1934 z"
       id="path7500" />
    <path
       inkscape:connector-curvature="0"
       style="fill:#b2fb5d;fill-opacity:1;fill-rule:evenodd;stroke:none;stroke-opacity:1"
       d="m 412.81152,371.97584 c -0.0716,-0.01 -0.17826,0.01 -0.26172,0.01 0.21828,0.082 0.4356,0.1666 0.65625,0.2403 0.0263,-0.1574 -0.1387,-0.2271 -0.39453,-0.25 z"
       id="path7498" />
    <path
       inkscape:connector-curvature="0"
       style="fill:#b2fb5d;fill-opacity:1;fill-rule:evenodd;stroke:none;stroke-opacity:1"
       d="m 425.65527,375.45624 c -0.58599,0.443 -0.53272,0.4099 -0.92774,0.711 0.22798,-0.1022 0.45866,-0.2275 0.75195,-0.4453 0.0853,-0.063 0.26059,-0.3298 0.17579,-0.2657 z"
       id="path7496" />
    <path
       inkscape:connector-curvature="0"
       style="fill:#b2fb5d;fill-opacity:1;fill-rule:evenodd;stroke:none;stroke-opacity:1"
       d="m 409.96191,381.37814 c -0.20242,-0.013 -0.41115,0.028 -0.59961,0.1035 -0.007,0 -0.0168,0.01 -0.0234,0.012 0.20508,0.055 0.41089,0.1074 0.62109,0.1329 0.0823,0.01 0.0843,-0.2426 0.002,-0.2481 z"
       id="path7494" />
    <path
       inkscape:connector-curvature="0"
       style="fill:#b2fb5d;fill-opacity:1;fill-rule:evenodd;stroke:none;stroke-opacity:1"
       d="m 392.04003,388.41914 c -0.40897,0.103 -0.6125,0.1593 -1.17187,0.3047 -0.36032,0.094 0.84462,0.068 1.09765,-0.2051 0.0275,-0.03 0.0478,-0.068 0.0742,-0.1 z"
       id="path7492" />
    <path
       inkscape:connector-curvature="0"
       style="fill:#b2fb5d;fill-opacity:1;fill-rule:evenodd;stroke:none;stroke-opacity:1"
       d="m 353.42284,394.03244 c -0.0299,0.017 -0.053,0.026 -0.082,0.043 0.007,0 0.0143,0 0.0215,-0.01 0.0195,-0.012 0.0404,-0.024 0.0605,-0.037 z"
       id="path7490" />
    <path
       inkscape:connector-curvature="0"
       style="fill:#b2fb5d;fill-opacity:1;fill-rule:evenodd;stroke:none;stroke-opacity:1"
       d="m 353.083,394.24334 c 0.009,0 -0.0406,0.026 -0.0234,0.018 0.006,0 0.0158,-0.011 0.0215,-0.014 8.3e-4,0 0.001,0 0.002,0 z"
       id="path4676" />
    <path
       inkscape:connector-curvature="0"
       style="fill:#6a6a6a;stroke:none;stroke-opacity:1"
       d="m 294.04589,389.43474 c -1.05884,-3.423 -2.16547,-6.8571 -3.57617,-10.0253 -5.7478,-12.909 -9.03885,-20.3727 -10.89258,-24.8575 -0.92686,-2.2423 -1.49417,-3.7408 -1.83008,-4.8027 -0.33591,-1.0619 -0.4414,-1.6871 -0.4414,-2.1855 0,-0.5927 -0.47598,-1.6088 -1.24414,-2.7676 -0.76817,-1.1588 -1.8287,-2.4596 -2.99414,-3.625 -1.16551,-1.1655 -2.20509,-2.4035 -2.94141,-3.4571 -0.73633,-1.0535 -1.16939,-1.9225 -1.12109,-2.3554 0.0485,-0.433 -0.36621,-1.7434 -1.07618,-3.5059 -0.70996,-1.7624 -1.71449,-3.9776 -2.83984,-6.2187 -1.1254,-2.2411 -2.26991,-4.9786 -3.20898,-7.584 -0.93908,-2.6055 -1.67326,-5.079 -1.97266,-6.791 -0.60855,-3.4794 -1.75841,-8.2389 -3.33984,-13.8867 -1.58144,-5.6479 -3.59364,-12.1831 -5.92774,-19.2129 -1.10715,-3.3346 -2.07165,-7.0247 -2.86523,-10.8262 -0.79359,-3.8015 -1.41648,-7.716 -1.8418,-11.4981 -0.42532,-3.782 -0.65195,-7.4328 -0.6543,-10.7089 -0.002,-3.2762 0.21999,-6.1771 0.69531,-8.461 0.63565,-3.0542 0.93497,-4.9415 0.86133,-6.3926 -0.0368,-0.7255 -0.1665,-1.3429 -0.39453,-1.9414 -0.22803,-0.5985 -0.55392,-1.178 -0.98242,-1.832 -0.27745,-0.4234 -0.54764,-1.4699 -0.80078,-2.9766 -0.25314,-1.5066 -0.48966,-3.4728 -0.70508,-5.7363 -0.43085,-4.527 -0.77309,-10.2414 -0.97266,-15.8379 -0.0195,-0.5483 0.005,-0.9376 -0.0117,-1.4824 -0.78911,12.9423 -0.55194,25.1119 0.74609,25.9141 0.9604,0.5936 1.10764,3.0981 0.46484,7.8867 -2.0386,15.1871 0.19217,34.7287 6.00977,52.6426 2.3443,7.2187 5.23086,18.1875 6.41406,24.375 1.1833,6.1875 3.00428,12.5763 4.04688,14.1992 1.0427,1.6229 2.56842,5.2754 3.39062,8.1152 0.8885,3.0686 2.6104,5.7197 4.24609,6.5352 4.55231,2.2696 7.76954,5.7608 7.76954,8.4316 0,1.3855 1.6316,6.2206 3.625,10.7441 1.9935,4.5236 4.86702,11.3184 6.38672,15.0997 1.51969,3.7812 3.58082,7.8001 4.57812,8.9316 1.44085,1.6347 2.55987,3.7073 3.40039,6.0937 z"
       id="path6072" />
    <path
       style="fill:#6a6a6a;fill-opacity:1;stroke:none;stroke-opacity:1"
       d="m 276.77636,145.78244 c -18.51889,15.5732 -9.54993,43.6623 -22.20852,61.5972 -2.84706,15.1795 6.42263,30.2841 3.85803,46.1285 -1.58414,12.3547 14.02295,41.8101 23.90863,20.7575 -0.003,-8.2677 0.93662,-16.0244 5.71074,-4.2311 3.39917,19.2562 29.17112,2.8394 32.80635,24.0306 5.14589,12.8827 11.26002,26.9744 25.23371,32.3052 13.39872,9.1442 24.69791,22.4114 40.30617,27.5338 13.38008,2.5698 38.7366,-10.3156 39.37715,12.0309 0.91537,17.4675 -19.06451,0.8319 -26.67744,12.3962 -8.90507,4.6254 -37.5681,-1.4275 -35.27311,9.8177 19.79252,9.7309 43.8257,3.6639 62.73099,-5.4386 28.21292,-15.1314 49.21118,-46.9928 45.82812,-79.544 1.74143,-8.055 1.63597,-15.7486 -7.15812,-9.6795 -20.03232,-6.6679 -32.05675,13.2786 -49.55055,15.8134 -19.9855,-1.5025 -49.30446,1.3648 -57.16987,-20.436 -15.1129,-1.9689 -23.39331,-17.1428 -37.79506,-21.1495 -17.08406,-10.4919 -26.65369,-28.2246 -33.49633,-45.8807 -9.03772,-23.3201 5.01665,-53.3225 -8.14947,-74.5866 -0.47577,-0.7684 -2.28142,-1.465 -2.28142,-1.465 z"
       id="path4668"
       inkscape:connector-curvature="0"
       sodipodi:nodetypes="cccccccccccccccccaacc" />
    <path
       style="fill:#6a6a6a;fill-opacity:1;stroke:none;stroke-opacity:1"
       d="m 479.1813,266.01384 c -9.02179,-2.288 -8.92112,-13.7592 -9.77363,-21.1919 -2.23466,-9.0143 7.73367,-15.2759 11.04223,-4.8359 1.88392,8.5244 5.56398,17.3038 3.31335,26.1606 -1.32589,1.4277 -3.07804,-0.094 -4.58195,-0.1328 z"
       id="path4660"
       inkscape:connector-curvature="0" />
    <path
       style="fill:#6a6a6a;fill-opacity:1;stroke:none;stroke-opacity:1"
       d="m 467.9432,219.00494 c -13.61913,-13.4079 -25.05007,-30.7737 -26.57785,-50.1561 3.08691,-17.493 18.81189,-8.8226 19.8486,4.4054 5.95315,14.4978 10.52969,30.3724 9.80983,46.0516 -0.57872,1.0864 -3.12614,1.708 -3.08058,-0.3009 z"
       id="path4656"
       inkscape:connector-curvature="0" />
    <path
       style="fill:#6a6a6a;stroke:none;stroke-opacity:1"
       d="m 399.3069,87.242542 c -10.81095,-3.0337 -22.70558,-2.3547 -32.72134,-8.0027 -3.97693,-5.0026 2.77072,-9.2414 5.35684,-12.8169 2.85206,-5.814 2.13368,-12.784501 5.63067,-18.402301 2.52293,-4.8917 6.43734,-9.2325 11.51903,-11.511399 5.4393,-6.1853 17.24774,-0.4848 15.08669,7.756699 -1.73309,8.6427 -5.27015,17.625101 -2.43793,26.471001 -0.95085,5.1608 5.88566,14.7796 -1.71042,16.6125 l -0.72354,-0.1069 0,0 z"
       id="path4290"
       inkscape:connector-curvature="0" />
    <path
       style="fill:#3d3d3d;fill-opacity:1;stroke:none;stroke-opacity:1"
       d="m 193.06466,497.37474 c -13.02184,-2.6378 -23.41468,-12.0131 -31.53932,-22.0388 -3.24685,-4.8099 -5.84882,-10.0096 -8.83806,-14.9758 14.91031,4.9719 28.03105,14.5927 43.64271,17.5971 13.5195,3.3376 27.31355,5.482 41.16806,6.8192 3.4329,-0.8248 6.74194,-2.9034 10.34074,-2.5546 0.33989,3.8578 -5.82261,5.3411 -8.50972,7.5938 -11.00087,6.2908 -23.83117,9.1538 -36.46535,8.3074 -3.27495,-0.1132 -6.54359,-0.3774 -9.79906,-0.7483 z"
       id="path4652"
       inkscape:connector-curvature="0" />
    <path
       style="fill:#3d3d3d;fill-opacity:1;stroke:none;stroke-opacity:1"
       d="m 131.17243,371.02964 c -9.15141,-12.4436 -19.00454,-24.4211 -27.63418,-37.2144 -6.139824,-6.7988 -5.916664,-15.845 -8.406934,-23.9175 -4.9084,-5.899 0.0187,-14.0133 7.218464,-8.9472 12.3284,5.8293 24.62501,12.6304 33.34997,23.4347 6.77708,8.4878 14.33593,20.5306 8.44412,31.4151 -4.28576,4.2861 -9.3591,7.7868 -7.92295,14.8557 -0.58012,4.6411 -3.3471,3.0875 -5.04849,0.3736 z"
       id="path4646"
       inkscape:connector-curvature="0" />
    <path
       style="fill:#3d3d3d;stroke:none;stroke-opacity:1"
       d="m 379.1813,81.628842 c -5.99248,0.9303 -13.15257,-6.7316 -7.88008,-11.852 4.78527,-6.2496 3.25678,-14.903701 7.55189,-21.433001 4.34901,-6.4288 10.5909,-13.047999 18.85153,-13.476399 6.33549,1.7392 6.06824,9.718199 4.48514,14.772299 -0.57054,6.3122 -4.53843,11.131101 -8.4745,15.688701 -4.59741,7.1153 10.69414,2.2982 6.01639,10.6875 -2.2366,7.1476 -11.10603,8.0105 -17.30862,6.2631 -1.08195,-0.21 -2.15999,-0.4393 -3.24175,-0.6502 z"
       id="path4288"
       inkscape:connector-curvature="0" />
    <path
       style="fill:#3d3d3d;fill-opacity:1;stroke:none;stroke-opacity:1"
       d="m 244.61034,187.48364 c -3.67475,24.5845 2.63085,49.6024 2.40405,74.2544 6.90619,34.1908 17.95483,67.3513 34.90944,97.8767 15.31537,20.5363 9.77822,49.0061 22.84102,68.9967 22.32571,3.1347 45.67149,-5.8467 67.28608,-12.0917 17.56761,-7.4731 49.42104,-16.1464 64.9185,-32.0633 25.50699,-34.7945 19.23948,-44.925 -31.82399,-31.7943 -25.37862,10.4378 -40.94918,-15.7987 -60.6472,-26.7131 -24.9902,-9.1518 -18.74522,-54.1259 -52.12073,-46.5491 -3.68705,-11.118 -10.31725,-27.254 -11.36511,-3.5322 -14.76999,26.4207 -24.62865,-24.4825 -23.58657,-36.8146 -1.60246,-17.6335 -2.97743,-36.2505 -12.81549,-51.5695 z m 23.7793,43.457 c -19.92269,9.332 17.20826,31.4392 7.25869,5.4746 -1.58981,-2.6905 -4.32373,-4.5447 -7.25869,-5.4746 z"
       id="path6068"
       inkscape:connector-curvature="0"
       sodipodi:nodetypes="ccccccccccccccc" />
    <path
       style="fill:#c9c9c9;fill-opacity:1;stroke:none;stroke-opacity:1"
       d="m 144.458,143.55394 c -36.29285,1.1804 -73.846914,27.6837 -77.994044,65.4411 0.82302,16.6371 3.52112,33.509 8.31325,49.4572 10.03863,25.6573 32.048864,44.4493 55.418324,57.8333 16.40519,16.7418 10.95305,42.2868 5.36938,62.457 -8.67087,26.6478 -4.02427,60.3197 20.39485,77.2197 23.67931,18.0832 54.58882,23.1801 83.62027,23.8126 24.03358,-3.5906 40.0358,-25.1754 50.7641,-45.2067 7.91342,-21.0602 6.00544,-44.3866 3.28617,-66.285 -4.49398,-29.8639 -14.39702,-58.4998 -22.1802,-87.5839 -16.92825,-30.707 -26.04697,-65.1671 -29.69261,-99.8631 -7.072,-23.6701 -33.70662,-32.7783 -55.98679,-34.7332 -13.71509,-1.6515 -27.57526,-1.1856 -41.3127,-2.549 z"
       id="path5949"
       inkscape:connector-curvature="0" />
    <path
       style="fill:#3d3d3d;fill-opacity:1;stroke:none;stroke-opacity:1"
       d="m 197.30627,411.99634 c -22.44286,4.6499 -52.70191,-21.926 -27.29727,-39.9738 18.99936,-18.1423 51.23278,-18.8844 71.93186,-3.1953 18.66136,25.0472 -16.02588,52.0492 -40.76028,43.9293 l -3.87431,-0.7602 0,0 z"
       id="path4682"
       inkscape:connector-curvature="0" />
    <path
       style="fill:#3d3d3d;fill-opacity:1;stroke:none;stroke-opacity:1"
       d="m 175.43127,276.94784 c -13.56765,-7.9392 -26.39618,-22.8759 -16.82377,-38.8262 1.05019,-17.7591 18.68871,-28.6811 35.31443,-22.8685 15.11926,2.9435 42.39202,15.7932 25.4206,33.6255 -12.19271,11.4892 -24.77785,30.6674 -43.91126,28.0692 z"
       id="path4680"
       inkscape:connector-curvature="0" />
    <path
       style="fill:#3d3d3d;fill-opacity:1;stroke:none;stroke-opacity:1"
       d="m 99.287446,223.88204 c -23.05411,-9.8296 -3.68857,-36.4831 9.222394,-46.4646 9.22954,-18.9251 39.52913,-24.2429 40.98898,2.4701 4.4489,16.0073 2.83474,43.0897 -19.78005,41.3291 -10.65292,-1.3484 -20.32702,6.7234 -30.431324,2.6654 z"
       id="path4294"
       inkscape:connector-curvature="0" />
  </g>
</svg>
